  <svg xmlns="http://www.w3.org/2000/svg" viewBox="0 0 24 24">
    <g fill="none" fill-rule="evenodd" transform="translate(0 .5)">
      <path fill="#B4C4D2" class="color3" d="M9.81818182,10.1309524 L1.03118127,10.1309524 C0.579490364,10.1309524 0.212999455,9.76300714 0.212999455,9.30952381 L0.212999455,0.821428571 C0.212999455,0.367945238 0.579490364,0 1.03118127,0 L9.81818182,0 C10.2698727,0 10.6363636,0.367945238 10.6363636,0.821428571 L10.6363636,9.30952381 C10.6363636,9.76300714 10.2698727,10.1309524 9.81818182,10.1309524 Z M1.84936364,8.48809524 L9,8.48809524 L9,1.64285714 L1.84936364,1.64285714 L1.84936364,8.48809524 Z" />
      <polygon fill="#16C758" class="color2" points="5.187 7.303 2.717 5.378 3.717 4.079 4.972 5.057 6.906 2.84 8.135 3.921" />
      <polygon fill="#1674C7" class="color1" points="12.63 5.887 23.787 5.887 23.787 4.244 12.63 4.244" />
      <path fill="#B4C4D2" class="color3" d="M9.81818182,23 L1.03118127,23 C0.579490364,23 0.212999455,22.6320548 0.212999455,22.1785714 L0.212999455,13.6904762 C0.212999455,13.2369929 0.579490364,12.8690476 1.03118127,12.8690476 L9.81818182,12.8690476 C10.2698727,12.8690476 10.6363636,13.2369929 10.6363636,13.6904762 L10.6363636,22.1785714 C10.6363636,22.6320548 10.2698727,23 9.81818182,23 Z M1.84936364,21.3571429 L9,21.3571429 L9,14.5119048 L1.84936364,14.5119048 L1.84936364,21.3571429 Z" />
      <polygon fill="#16C758" class="color2" points="5.187 20.172 2.717 18.247 3.717 16.948 4.972 17.926 6.906 15.709 8.135 16.79" />
      <polygon fill="#1674C7" class="color1" points="12.63 18.756 23.787 18.756 23.787 17.113 12.63 17.113" />
    </g>
  </svg>
