<svg version="1.1" id="Layer_1" xmlns="http://www.w3.org/2000/svg" xmlns:xlink="http://www.w3.org/1999/xlink" x="0px" y="0px"
width="355.788px" height="338.767px" viewBox="0 0 355.788 338.767" enable-background="new 0 0 355.788 338.767"
xml:space="preserve">
<polygon class="color1" fill="#262262" points="177.574,80.437 232.261,0 229.917,97.235 321.439,64.304 262.389,141.592 355.788,168.746
262.586,196.567 322.19,273.43 230.433,241.156 233.476,338.373 178.212,258.332 123.527,338.767 125.873,241.53 34.349,274.463
93.401,197.174 0,170.021 93.204,142.199 33.599,65.336 125.354,97.609 122.314,0.393 "/>
<g>
<g>
 <path fill="#FFFFFF" d="M-132.739,273.023c-5.369,9.475-14.684,23.998-26.84,23.998c-4.578,0-8.525-2.367-8.525-7.578
   c0-1.895,0.158-4.736,2.684-11.209l12.631-32.838c1.736-4.42,2.84-7.263,2.84-8.683c0-1.58-0.473-2.212-1.895-2.212
   c-4.734,0-9.629,10.578-15.311,17.841l-3.475-1.737c7.736-13.576,17.84-27.627,26.68-27.627c6.158,0,9.473,4.104,9.473,9.156
   c0,2.684-1.262,7.894-3.473,14.051l-12.156,31.733c-1.264,3.315-2.053,5.368-2.053,7.577c0,0.948,0.947,1.738,1.895,1.738
   c4.42,0,11.842-12.789,14.051-16.104L-132.739,273.023z M-135.966,212.894c-4.895,0-9.473-4.105-9.473-9.473
   s4.578-9.474,9.473-9.474s9.473,4.106,9.473,9.474S-131.071,212.894-135.966,212.894z"/>
</g>
<circle fill="none" stroke="#FFFFFF" stroke-width="8.8889" stroke-miterlimit="10" cx="-146.572" cy="244.908" r="76.888"/>
</g>
<g>
<polyline fill="#006838" points="-498.48,175.06 -379.024,331.482 -259.569,175.06 	"/>

 <text transform="matrix(1 0 0 1 -423.8569 232.3188)" fill="#FFFFFF" font-family="'AvertaDemoPECuttedDemo-Regular'" font-size="33.1959">MEAL</text>
</g>
</svg>
